<svg xmlns="http://www.w3.org/2000/svg" width="20" height="20" viewBox="0 0 20 20">
  <g id="Group_153" data-name="Group 153" transform="translate(-1208 -595)">
    <circle id="Ellipse_42" data-name="Ellipse 42" cx="6.5" cy="6.5" r="6.5" transform="translate(1212 599)" fill="#fff"/>
    <path id="bxs-badge-check" d="M19.965,8.521A3.976,3.976,0,0,0,20,8a4.024,4.024,0,0,0-4.521-3.965,3.991,3.991,0,0,0-6.958,0A4.021,4.021,0,0,0,4,8a3.976,3.976,0,0,0,.035.521,3.991,3.991,0,0,0,0,6.958A3.976,3.976,0,0,0,4,16a4.024,4.024,0,0,0,4.521,3.965,3.991,3.991,0,0,0,6.958,0A4.026,4.026,0,0,0,20,16a3.976,3.976,0,0,0-.035-.521,3.991,3.991,0,0,0,0-6.958Zm-9.01,7.9L7.288,12.7l1.424-1.4,2.257,2.286L15.3,9.29,16.7,10.71Z" transform="translate(1206 593)" fill="#7b68ee"/>
  </g>
</svg>
