<svg xmlns="http://www.w3.org/2000/svg" width="141" height="150" viewBox="0 0 141 150">
  <g id="Group_215" data-name="Group 215" transform="translate(-283 -210)">
    <g id="Group_211" data-name="Group 211" transform="translate(-41 -43)" opacity="0.7">
      <circle id="Ellipse_69" data-name="Ellipse 69" cx="15" cy="15" r="15" transform="translate(324 253)" fill="#656565"/>
      <rect id="Rectangle_253" data-name="Rectangle 253" width="67" height="13" rx="2" transform="translate(364 255)" fill="#656565"/>
      <rect id="Rectangle_254" data-name="Rectangle 254" width="101" height="9" rx="2" transform="translate(364 273)" fill="#656565"/>
    </g>
    <g id="Group_212" data-name="Group 212" transform="translate(-41 -3)" opacity="0.5">
      <circle id="Ellipse_69-2" data-name="Ellipse 69" cx="15" cy="15" r="15" transform="translate(324 253)" fill="#656565"/>
      <rect id="Rectangle_253-2" data-name="Rectangle 253" width="67" height="13" rx="2" transform="translate(364 255)" fill="#656565"/>
      <rect id="Rectangle_254-2" data-name="Rectangle 254" width="101" height="9" rx="2" transform="translate(364 273)" fill="#656565"/>
    </g>
    <g id="Group_213" data-name="Group 213" transform="translate(-41 37)" opacity="0.25">
      <circle id="Ellipse_69-3" data-name="Ellipse 69" cx="15" cy="15" r="15" transform="translate(324 253)" fill="#656565"/>
      <rect id="Rectangle_253-3" data-name="Rectangle 253" width="67" height="13" rx="2" transform="translate(364 255)" fill="#656565"/>
      <rect id="Rectangle_254-3" data-name="Rectangle 254" width="101" height="9" rx="2" transform="translate(364 273)" fill="#656565"/>
    </g>
    <g id="Group_214" data-name="Group 214" transform="translate(-41 77)" opacity="0.1">
      <circle id="Ellipse_69-4" data-name="Ellipse 69" cx="15" cy="15" r="15" transform="translate(324 253)" fill="#656565"/>
      <rect id="Rectangle_253-4" data-name="Rectangle 253" width="67" height="13" rx="2" transform="translate(364 255)" fill="#656565"/>
      <rect id="Rectangle_254-4" data-name="Rectangle 254" width="101" height="9" rx="2" transform="translate(364 273)" fill="#656565"/>
    </g>
  </g>
</svg>
