<svg xmlns="http://www.w3.org/2000/svg" width="50" height="50" viewBox="0 0 50 50">
  <g id="Group_210" data-name="Group 210" transform="translate(-149 -316)">
    <rect id="Rectangle_251" data-name="Rectangle 251" width="50" height="50" transform="translate(149 316)" fill="#fff" opacity="0"/>
    <path id="bxs-group_1_" data-name="bxs-group (1)" d="M32.374,30.8h3.573A17.009,17.009,0,0,0,29.6,17.986a10.449,10.449,0,0,0,1.944-6.137,10.314,10.314,0,0,0-3.3-7.354L25.781,7.078a6.693,6.693,0,0,1,2.19,4.812,7.184,7.184,0,0,1-2.219,5.14l-1.545,1.544,1.822,1.208A13.774,13.774,0,0,1,32.374,30.8ZM15.4,18.293a7.147,7.147,0,1,0-7.147-7.147A7.154,7.154,0,0,0,15.4,18.293ZM5.573,32.587H28.8V30.8A10.731,10.731,0,0,0,18.08,20.08H12.72A10.731,10.731,0,0,0,2,30.8v1.787H5.573Z" transform="translate(155 323)" fill="#7b68ee"/>
  </g>
</svg>
