<svg id="Riot.js" xmlns="http://www.w3.org/2000/svg" width="403" height="183" viewBox="0 0 403 183">
  <rect id="Background" width="403" height="183" fill="#4533b1"/>
  <g id="Logo">
    <path id="RIOT" d="M1.08,0V-38.88H31.44l8.52,7.92v9.36L35.1-16.86l4.86,4.8V0H27.84l-8.1-7.8V0ZM42.12,0H68.88V-38.88H42.12Zm71.16-30.96V-7.92L105.3,0H79.02L71.04-7.92V-30.96l7.98-7.92H105.3ZM125.16,0V-17.34h-9.72V-38.88h38.88v21.6h-9.66V0Z" transform="translate(83 110)" fill="#fff"/>
    <path id="_.js" data-name=".js" d="M10.251-4.539a5.057,5.057,0,0,1,1.428-3.7A4.861,4.861,0,0,1,15.3-9.69a4.861,4.861,0,0,1,3.621,1.453,5.057,5.057,0,0,1,1.428,3.7,5.057,5.057,0,0,1-1.428,3.7A4.861,4.861,0,0,1,15.3.612,4.861,4.861,0,0,1,11.679-.841,5.057,5.057,0,0,1,10.251-4.539Zm24.633-20.5H51.612V-.459a16.429,16.429,0,0,1-.535,4.284,9.093,9.093,0,0,1-1.785,3.493A8.192,8.192,0,0,1,45.9,9.665a14.747,14.747,0,0,1-5.355.842,16.067,16.067,0,0,1-4.055-.484,19.813,19.813,0,0,1-3.391-1.2L34.884,4.59a13.914,13.914,0,0,0,2.779.969,11.67,11.67,0,0,0,2.576.306q3.213,0,4.361-1.53A7.407,7.407,0,0,0,45.747-.153V-20.4H34.884Zm13.362-4.386A4.313,4.313,0,0,1,45.263-30.5a3.642,3.642,0,0,1-1.2-2.856,3.721,3.721,0,0,1,1.2-2.882,4.253,4.253,0,0,1,2.983-1.1,4.23,4.23,0,0,1,3.009,1.1,3.76,3.76,0,0,1,1.173,2.882A3.68,3.68,0,0,1,51.255-30.5,4.29,4.29,0,0,1,48.246-29.427Zm18.87,22.44a19.6,19.6,0,0,0,4.463,2.32,15.259,15.259,0,0,0,5.228.842,8.582,8.582,0,0,0,4.335-.842,2.488,2.488,0,0,0,1.377-2.167q0-1.326-1.785-2.219a31.841,31.841,0,0,0-5.61-1.912,29.487,29.487,0,0,1-3.468-1.122,15.064,15.064,0,0,1-2.958-1.53,7.6,7.6,0,0,1-2.04-1.989,4.42,4.42,0,0,1-.765-2.55,6.42,6.42,0,0,1,2.856-5.406q2.856-2.091,8.211-2.091a16.187,16.187,0,0,1,5.763,1.02,23.609,23.609,0,0,1,4.641,2.3l-2.7,3.621a16.584,16.584,0,0,0-3.6-1.811,11.879,11.879,0,0,0-4.055-.688,7.685,7.685,0,0,0-4.08.79,2.318,2.318,0,0,0-1.173,1.963,1.658,1.658,0,0,0,.535,1.2,5.066,5.066,0,0,0,1.479.969,19.844,19.844,0,0,0,2.218.842q1.275.408,2.805.765a34.024,34.024,0,0,1,3.952,1.25,14.612,14.612,0,0,1,3.009,1.556,6.483,6.483,0,0,1,1.938,2.04,5.24,5.24,0,0,1,.688,2.7,6.237,6.237,0,0,1-.765,3.034,7.272,7.272,0,0,1-2.244,2.448A11.827,11.827,0,0,1,81.7,0a18.841,18.841,0,0,1-5.049.612A20.272,20.272,0,0,1,69.921-.51a22.919,22.919,0,0,1-5.559-2.754Z" transform="translate(228 110)" fill="#fff"/>
  </g>
</svg>
